<svg width="186" height="242" viewBox="0 0 186 242" fill="none" xmlns="http://www.w3.org/2000/svg">
<g clip-path="url(#clip0_153_683)">
<path d="M117.711 26.787C117.711 26.787 114.434 36.1321 116.195 42.0551C116.195 42.0551 124.582 42.8902 131.929 37.346C131.929 37.346 119.228 31.4962 117.711 26.787Z" fill="black"/>
<path d="M135.124 49.347C135.124 49.347 136.88 37.389 131.449 34.4448C126.017 31.5005 120.504 28.384 120.586 23.0679C120.667 17.7518 124.021 9.92623 130.729 9.54743C137.437 9.16863 141.271 29.8303 141.271 29.8303C141.271 29.8303 142.547 38.7191 135.12 49.3513L135.124 49.347Z" fill="black"/>
<path d="M117.331 23.3429C117.331 23.3429 116.408 10.679 129.136 7.54097C129.136 7.54097 121.853 3.55929 111.872 1.42425C97.5919 -1.63196 77.3185 -1.62335 65.9258 20.7085C63.2779 25.5296 61.0283 31.3923 59.3219 38.4861C59.3219 38.4861 50.224 42.3774 42.5881 51.5159C29.1268 67.6191 18.413 98.3189 57.2443 140.581C57.2443 140.581 50.6947 133.59 51.2288 127.009C51.2288 127.009 56.8732 132.682 63.3684 136.225C63.3684 136.225 74.123 150.808 74.8698 163.369C74.8698 163.369 76.789 150.305 74.4443 139.974C74.4443 139.974 117.472 153.951 132.168 101.539C132.168 101.539 124.926 136.633 87.2267 135.923C87.2267 135.923 42.7103 139.165 42.2848 89.3311C42.2848 89.3311 39.5147 106.041 42.0721 114.349C42.0721 114.349 19.3862 61.8209 66.0344 42.1019C66.0344 42.1019 69.23 -7.55497 119.232 9.53827C119.232 9.53827 113.244 15.5732 117.331 23.3472" fill="black"/>
<path d="M106.59 18.277C109.645 18.277 112.121 15.9219 112.121 13.0169C112.121 10.1118 109.645 7.75674 106.59 7.75674C103.535 7.75674 101.059 10.1118 101.059 13.0169C101.059 15.9219 103.535 18.277 106.59 18.277Z" fill="white"/>
<path d="M108.772 13.7702C110.087 13.7702 111.153 12.7565 111.153 11.506C111.153 10.2555 110.087 9.24181 108.772 9.24181C107.457 9.24181 106.391 10.2555 106.391 11.506C106.391 12.7565 107.457 13.7702 108.772 13.7702Z" fill="#1D1D1B"/>
<path d="M97.2389 11.506C97.2389 11.506 94.6816 22.9904 109.913 22.0779C109.913 22.0779 87.9735 25.543 97.2389 11.506Z" fill="#DF9433"/>
<path d="M94.3602 23.4941C94.3602 23.4941 78.8711 13.3612 102.431 6.01772C102.431 6.01772 88.8381 5.14821 78.8711 13.3569C68.9042 21.5656 66.03 42.0939 66.03 42.0939C66.03 42.0939 21.6178 55.5972 42.0677 114.341C42.0677 114.341 28.4072 46.6825 101.055 51.8479C101.055 51.8479 82.8543 46.9881 82.8543 33.515C82.8543 33.515 81.4647 24.6218 94.3557 23.4898L94.3602 23.4941Z" fill="#FCC12B"/>
<path d="M59.589 63.5519C59.589 63.5519 73.8062 54.2843 84.615 54.7406C84.615 54.7406 86.0001 57.6762 83.7098 58.6921C83.7098 58.6921 74.7114 58.3865 71.5702 61.7827C71.5702 61.7827 64.9663 63.0999 63.3142 66.2379C63.3142 66.2379 58.8693 67.0945 59.5845 63.5519H59.589Z" fill="#DF9433"/>
<path d="M44.7291 90.4508C44.7291 90.4508 48.0333 74.3649 56.0766 67.4819C56.0766 67.4819 59.2314 68.6528 58.3443 70.904C58.3443 70.904 51.7042 76.6893 51.9667 81.2004C51.9667 81.2004 48.228 86.5423 49.3686 89.8826C49.3686 89.8826 46.8293 93.4554 44.7337 90.4551L44.7291 90.4508Z" fill="#DF9433"/>
<path d="M128.973 97.4672C128.973 97.4672 127.018 113.755 119.572 121.22C119.572 121.22 116.331 120.29 117.028 117.983C117.028 117.983 123.166 111.715 122.532 107.238C122.532 107.238 125.814 101.634 124.401 98.3884C124.401 98.3884 126.633 94.6348 128.977 97.4715L128.973 97.4672Z" fill="#DF9433"/>
<path d="M82.9991 134.34C82.9991 134.34 65.9892 131.701 58.5027 124.267C58.5027 124.267 59.6343 121.232 62.0287 122.007C62.0287 122.007 68.3157 128.141 73.0503 127.749C73.0503 127.749 78.7806 131.137 82.2568 129.949C82.2568 129.949 86.0906 132.252 83.0036 134.34H82.9991Z" fill="#DF9433"/>
<path d="M120.205 69.0273C120.205 69.0273 129.484 82.8405 128.656 93.1024C128.656 93.1024 125.524 94.3249 124.533 92.1124C124.533 92.1124 125.144 83.5679 121.681 80.473C121.681 80.473 120.513 74.1539 117.263 72.4838C117.263 72.4838 116.507 68.2309 120.205 69.0273Z" fill="#DF9433"/>
<path d="M90.807 54.7233C90.807 54.7233 107.808 57.418 115.267 64.8734C115.267 64.8734 114.122 67.9038 111.737 67.1246C111.737 67.1246 105.472 60.9735 100.733 61.348C100.733 61.348 95.0164 57.9431 91.5357 59.1182C91.5357 59.1182 87.7064 56.8024 90.807 54.7276V54.7233Z" fill="#DF9433"/>
<path d="M114.276 124.745C114.276 124.745 100.389 134.452 89.5668 134.335C89.5668 134.335 88.0822 131.443 90.3363 130.358C90.3363 130.358 99.3391 130.38 102.363 126.889C102.363 126.889 108.917 125.365 110.456 122.175C110.456 122.175 114.869 121.181 114.276 124.741V124.745Z" fill="#DF9433"/>
<path d="M53.1163 120.096C53.1163 120.096 44.3941 105.956 45.6298 95.7368C45.6298 95.7368 48.8073 94.6305 49.708 96.8732C49.708 96.8732 48.7575 105.387 52.0979 108.607C52.0979 108.607 53.0167 114.965 56.1942 116.751C56.1942 116.751 56.7781 121.03 53.1163 120.1V120.096Z" fill="#DF9433"/>
<path d="M85.7601 54.7233H88.236C88.236 54.7233 88.3945 89.379 86.9958 92.7193C86.9958 92.7193 85.9955 90.6101 85.7556 54.7233H85.7601Z" fill="#DF9433"/>
<path d="M115.466 65.6396L117.227 67.2968C117.227 67.2968 91.7258 92.0521 88.2632 93.4984C88.2632 93.4984 89.1096 91.329 115.466 65.6439V65.6396Z" fill="#DF9433"/>
<path d="M88.2632 134.404H85.7873C85.7873 134.404 85.5474 99.7529 86.9415 96.4083C86.9415 96.4083 87.9464 98.5132 88.2632 134.404Z" fill="#DF9433"/>
<path d="M57.955 123.161L56.226 121.474C56.226 121.474 82.2161 97.1831 85.7104 95.8057C85.7104 95.8057 84.8187 97.9579 57.955 123.161Z" fill="#DF9433"/>
<path d="M117.431 121.538L115.697 123.217C115.697 123.217 89.594 99.034 88.0641 95.7454C88.0641 95.7454 90.3454 96.546 117.431 121.538Z" fill="#DF9433"/>
<path d="M44.7291 95.0825V92.7279C44.7291 92.7279 81.1705 92.5773 84.6829 93.9074C84.6829 93.9074 82.465 94.8587 44.7291 95.0868V95.0825Z" fill="#DF9433"/>
<path d="M57.0226 66.5909L58.7969 64.9466C58.7969 64.9466 84.348 89.6545 85.8009 92.9776C85.8009 92.9776 83.5378 92.1296 57.0226 66.5909Z" fill="#DF9433"/>
<path d="M128.706 93.903V96.2576C128.706 96.2576 92.2645 96.4083 88.7521 95.0782C88.7521 95.0782 90.97 94.1269 128.706 93.8987V93.903Z" fill="#DF9433"/>
<path d="M97.7051 76.4009C101.837 76.4009 105.187 73.2152 105.187 69.2855C105.187 65.3558 101.837 62.1701 97.7051 62.1701C93.573 62.1701 90.2231 65.3558 90.2231 69.2855C90.2231 73.2152 93.573 76.4009 97.7051 76.4009Z" fill="#CD2C3A"/>
<path d="M97.7368 69.5136C98.3068 69.5136 98.7688 69.0742 98.7688 68.5322C98.7688 67.9902 98.3068 67.5508 97.7368 67.5508C97.1669 67.5508 96.7048 67.9902 96.7048 68.5322C96.7048 69.0742 97.1669 69.5136 97.7368 69.5136Z" fill="#392A1A"/>
<path d="M93.5636 67.6799C93.5636 67.6799 94.1248 69.0832 91.6716 68.5365C89.2183 67.9899 93.5636 67.6799 93.5636 67.6799Z" fill="#392A1A"/>
<path d="M95.4782 64.8174C95.4782 64.8174 93.5952 64.6409 94.7857 63.5002C95.9761 62.3595 95.4782 64.8174 95.4782 64.8174Z" fill="#392A1A"/>
<path d="M100.566 63.8059C100.566 63.8059 99.7917 65.2995 100.697 66.2121C101.602 67.1246 101.521 63.4529 100.566 63.8059Z" fill="#392A1A"/>
<path d="M99.6062 74.0334C99.5338 74.0678 99.5066 75.8025 100.937 75.3247C102.367 74.8469 100.163 73.7794 99.6062 74.0334Z" fill="#392A1A"/>
<path d="M96.2522 71.0719C96.2522 71.0719 93.7356 71.7821 94.3919 74.2874C94.3919 74.2874 96.1708 73.0735 96.2522 71.0719Z" fill="#392A1A"/>
<path d="M100.797 69.8064C100.797 69.8064 103.521 69.0703 103.2 71.8811C103.2 71.8811 100.57 70.3875 100.797 69.8064Z" fill="#392A1A"/>
<path d="M76.0422 75.7767C80.1744 75.7767 83.5242 72.5911 83.5242 68.6614C83.5242 64.7316 80.1744 61.546 76.0422 61.546C71.91 61.546 68.5602 64.7316 68.5602 68.6614C68.5602 72.5911 71.91 75.7767 76.0422 75.7767Z" fill="#FCC12B"/>
<path d="M76.0739 68.8895C76.6438 68.8895 77.1059 68.4501 77.1059 67.9081C77.1059 67.366 76.6438 66.9266 76.0739 66.9266C75.5039 66.9266 75.0419 67.366 75.0419 67.9081C75.0419 68.4501 75.5039 68.8895 76.0739 68.8895Z" fill="#392A1A"/>
<path d="M71.9006 67.0558C71.9006 67.0558 72.4619 68.4591 70.0086 67.9124C67.5553 67.3657 71.9006 67.0558 71.9006 67.0558Z" fill="#392A1A"/>
<path d="M73.8197 64.1933C73.8197 64.1933 71.9368 64.0168 73.1272 62.8761C74.3176 61.7354 73.8197 64.1933 73.8197 64.1933Z" fill="#392A1A"/>
<path d="M78.9028 63.1817C78.9028 63.1817 78.1288 64.6754 79.034 65.5879C79.9393 66.5005 79.8578 62.8287 78.9028 63.1817Z" fill="#392A1A"/>
<path d="M77.9478 73.4092C77.8753 73.4437 77.8482 75.1784 79.2785 74.7006C80.7088 74.2228 78.5045 73.1553 77.9478 73.4092Z" fill="#392A1A"/>
<path d="M74.5893 70.4478C74.5893 70.4478 72.0726 71.158 72.7289 73.6632C72.7289 73.6632 74.5078 72.4494 74.5893 70.4478Z" fill="#392A1A"/>
<path d="M79.1337 69.1822C79.1337 69.1822 81.8585 68.4461 81.5372 71.257C81.5372 71.257 78.9074 69.7633 79.1337 69.1822Z" fill="#392A1A"/>
<path d="M113.574 112.055C117.707 112.055 121.056 108.87 121.056 104.94C121.056 101.01 117.707 97.8245 113.574 97.8245C109.442 97.8245 106.092 101.01 106.092 104.94C106.092 108.87 109.442 112.055 113.574 112.055Z" fill="#FCC12B"/>
<path d="M113.606 105.168C114.176 105.168 114.638 104.729 114.638 104.187C114.638 103.645 114.176 103.205 113.606 103.205C113.036 103.205 112.574 103.645 112.574 104.187C112.574 104.729 113.036 105.168 113.606 105.168Z" fill="#392A1A"/>
<path d="M109.433 103.33C109.433 103.33 109.994 104.733 107.541 104.187C105.088 103.64 109.433 103.33 109.433 103.33Z" fill="#392A1A"/>
<path d="M111.347 100.472C111.347 100.472 109.464 100.295 110.655 99.1546C111.845 98.0139 111.347 100.472 111.347 100.472Z" fill="#392A1A"/>
<path d="M116.435 99.4559C116.435 99.4559 115.661 100.95 116.566 101.862C117.472 102.775 117.39 99.1029 116.435 99.4559Z" fill="#392A1A"/>
<path d="M115.475 109.688C115.403 109.722 115.376 111.457 116.806 110.979C118.237 110.501 116.032 109.434 115.475 109.688Z" fill="#392A1A"/>
<path d="M112.121 106.726C112.121 106.726 109.605 107.436 110.261 109.942C110.261 109.942 112.04 108.728 112.121 106.726Z" fill="#392A1A"/>
<path d="M116.666 105.456C116.666 105.456 119.391 104.72 119.069 107.531C119.069 107.531 116.44 106.037 116.666 105.456Z" fill="#392A1A"/>
<path d="M60.9152 90.2657C65.0474 90.2657 68.3972 87.0801 68.3972 83.1504C68.3972 79.2207 65.0474 76.035 60.9152 76.035C56.783 76.035 53.4332 79.2207 53.4332 83.1504C53.4332 87.0801 56.783 90.2657 60.9152 90.2657Z" fill="#FCC12B"/>
<path d="M60.9469 83.3785C61.5169 83.3785 61.9789 82.9391 61.9789 82.3971C61.9789 81.8551 61.5169 81.4156 60.9469 81.4156C60.377 81.4156 59.9149 81.8551 59.9149 82.3971C59.9149 82.9391 60.377 83.3785 60.9469 83.3785Z" fill="#392A1A"/>
<path d="M56.7737 81.5448C56.7737 81.5448 57.3349 82.948 54.8816 82.4014C52.4284 81.8547 56.7737 81.5448 56.7737 81.5448Z" fill="#392A1A"/>
<path d="M58.6928 78.6823C58.6928 78.6823 56.8098 78.5058 58.0003 77.3651C59.1907 76.2244 58.6928 78.6823 58.6928 78.6823Z" fill="#392A1A"/>
<path d="M63.7758 77.6707C63.7758 77.6707 63.0018 79.1644 63.9071 80.077C64.8124 80.9895 64.7309 77.3178 63.7758 77.6707Z" fill="#392A1A"/>
<path d="M62.8208 87.8982C62.7484 87.9327 62.7212 89.6674 64.1515 89.1896C65.5819 88.7118 63.3775 87.6443 62.8208 87.8982Z" fill="#392A1A"/>
<path d="M59.4623 84.9367C59.4623 84.9367 56.9457 85.647 57.602 88.1522C57.602 88.1522 59.3808 86.9383 59.4623 84.9367Z" fill="#392A1A"/>
<path d="M64.0067 83.6712C64.0067 83.6712 66.7316 82.9351 66.4102 85.746C66.4102 85.746 63.7804 84.2523 64.0067 83.6712Z" fill="#392A1A"/>
<path d="M97.7368 126.286C101.869 126.286 105.219 123.1 105.219 119.171C105.219 115.241 101.869 112.055 97.7368 112.055C93.6046 112.055 90.2548 115.241 90.2548 119.171C90.2548 123.1 93.6046 126.286 97.7368 126.286Z" fill="#FCC12B"/>
<path d="M97.7685 119.399C98.3384 119.399 98.8005 118.959 98.8005 118.417C98.8005 117.875 98.3384 117.436 97.7685 117.436C97.1985 117.436 96.7365 117.875 96.7365 118.417C96.7365 118.959 97.1985 119.399 97.7685 119.399Z" fill="#392A1A"/>
<path d="M93.5952 117.561C93.5952 117.561 94.1565 118.964 91.7032 118.417C89.2545 117.866 93.5952 117.561 93.5952 117.561Z" fill="#392A1A"/>
<path d="M95.5143 114.698C95.5143 114.698 93.6314 114.522 94.8218 113.381C96.0122 112.24 95.5143 114.698 95.5143 114.698Z" fill="#392A1A"/>
<path d="M100.597 113.687C100.597 113.687 99.8234 115.18 100.729 116.093C101.634 117.005 101.552 113.334 100.597 113.687Z" fill="#392A1A"/>
<path d="M99.6378 123.918C99.5654 123.953 99.5382 125.688 100.969 125.21C102.399 124.732 100.195 123.664 99.6378 123.918Z" fill="#392A1A"/>
<path d="M96.2838 120.953C96.2838 120.953 93.7672 121.663 94.4235 124.168C94.4235 124.168 96.2024 122.954 96.2838 120.953Z" fill="#392A1A"/>
<path d="M100.828 119.687C100.828 119.687 103.553 118.951 103.232 121.762C103.232 121.762 100.602 120.268 100.828 119.687Z" fill="#392A1A"/>
<path d="M60.2136 112.055C64.3458 112.055 67.6956 108.87 67.6956 104.94C67.6956 101.01 64.3458 97.8245 60.2136 97.8245C56.0814 97.8245 52.7316 101.01 52.7316 104.94C52.7316 108.87 56.0814 112.055 60.2136 112.055Z" fill="#CD2C3A"/>
<path d="M60.2498 105.168C60.8197 105.168 61.2818 104.729 61.2818 104.187C61.2818 103.645 60.8197 103.205 60.2498 103.205C59.6798 103.205 59.2178 103.645 59.2178 104.187C59.2178 104.729 59.6798 105.168 60.2498 105.168Z" fill="#392A1A"/>
<path d="M56.072 103.33C56.072 103.33 56.6333 104.733 54.18 104.187C51.7267 103.64 56.072 103.33 56.072 103.33Z" fill="#392A1A"/>
<path d="M57.9911 100.472C57.9911 100.472 56.1082 100.295 57.2986 99.1546C58.489 98.0139 57.9911 100.472 57.9911 100.472Z" fill="#392A1A"/>
<path d="M63.0787 99.4559C63.0787 99.4559 62.3047 100.95 63.2099 101.862C64.1152 102.775 64.0337 99.1029 63.0787 99.4559Z" fill="#392A1A"/>
<path d="M62.1191 109.688C62.0467 109.722 62.0196 111.457 63.4499 110.979C64.8802 110.501 62.6759 109.434 62.1191 109.688Z" fill="#392A1A"/>
<path d="M58.7652 106.726C58.7652 106.726 56.2485 107.436 56.9049 109.942C56.9049 109.942 58.6837 108.728 58.7652 106.726Z" fill="#392A1A"/>
<path d="M63.3051 105.456C63.3051 105.456 66.0299 104.72 65.7085 107.531C65.7085 107.531 63.0788 106.037 63.3051 105.456Z" fill="#392A1A"/>
<path d="M72.8013 102.745C74.5911 102.745 76.0421 101.365 76.0421 99.6625C76.0421 97.9604 74.5911 96.5805 72.8013 96.5805C71.0114 96.5805 69.5604 97.9604 69.5604 99.6625C69.5604 101.365 71.0114 102.745 72.8013 102.745Z" fill="#CD2C3A"/>
<path d="M92.9977 110.618C94.7876 110.618 96.2385 109.238 96.2385 107.535C96.2385 105.833 94.7876 104.453 92.9977 104.453C91.2078 104.453 89.7568 105.833 89.7568 107.535C89.7568 109.238 91.2078 110.618 92.9977 110.618Z" fill="#CD2C3A"/>
<path d="M80.7767 110.618C82.5666 110.618 84.0176 109.238 84.0176 107.535C84.0176 105.833 82.5666 104.453 80.7767 104.453C78.9869 104.453 77.5359 105.833 77.5359 107.535C77.5359 109.238 78.9869 110.618 80.7767 110.618Z" fill="#CD2C3A"/>
<path d="M101.322 102.745C103.112 102.745 104.562 101.365 104.562 99.6625C104.562 97.9604 103.112 96.5805 101.322 96.5805C99.5318 96.5805 98.0808 97.9604 98.0808 99.6625C98.0808 101.365 99.5318 102.745 101.322 102.745Z" fill="#CD2C3A"/>
<path d="M101.711 91.6518C103.501 91.6518 104.952 90.2719 104.952 88.5698C104.952 86.8676 103.501 85.4877 101.711 85.4877C99.9211 85.4877 98.4701 86.8676 98.4701 88.5698C98.4701 90.2719 99.9211 91.6518 101.711 91.6518Z" fill="#CD2C3A"/>
<path d="M92.9977 83.5851C94.7876 83.5851 96.2385 82.2052 96.2385 80.5031C96.2385 78.8009 94.7876 77.4211 92.9977 77.4211C91.2078 77.4211 89.7568 78.8009 89.7568 80.5031C89.7568 82.2052 91.2078 83.5851 92.9977 83.5851Z" fill="#CD2C3A"/>
<path d="M81.2247 83.1504C83.0146 83.1504 84.4656 81.7705 84.4656 80.0683C84.4656 78.3662 83.0146 76.9863 81.2247 76.9863C79.4349 76.9863 77.9839 78.3662 77.9839 80.0683C77.9839 81.7705 79.4349 83.1504 81.2247 83.1504Z" fill="#CD2C3A"/>
<path d="M73.3853 91.6518C75.1751 91.6518 76.6261 90.2719 76.6261 88.5698C76.6261 86.8676 75.1751 85.4877 73.3853 85.4877C71.5954 85.4877 70.1444 86.8676 70.1444 88.5698C70.1444 90.2719 71.5954 91.6518 73.3853 91.6518Z" fill="#CD2C3A"/>
<path d="M113.574 91.6518C117.707 91.6518 121.056 88.4661 121.056 84.5364C121.056 80.6067 117.707 77.4211 113.574 77.4211C109.442 77.4211 106.092 80.6067 106.092 84.5364C106.092 88.4661 109.442 91.6518 113.574 91.6518Z" fill="#CD2C3A"/>
<path d="M113.606 84.7646C114.176 84.7646 114.638 84.3252 114.638 83.7831C114.638 83.2411 114.176 82.8017 113.606 82.8017C113.036 82.8017 112.574 83.2411 112.574 83.7831C112.574 84.3252 113.036 84.7646 113.606 84.7646Z" fill="#392A1A"/>
<path d="M109.433 82.9308C109.433 82.9308 109.994 84.3341 107.541 83.7874C105.088 83.2408 109.433 82.9308 109.433 82.9308Z" fill="#392A1A"/>
<path d="M111.347 80.0683C111.347 80.0683 109.464 79.8919 110.655 78.7512C111.845 77.6105 111.347 80.0683 111.347 80.0683Z" fill="#392A1A"/>
<path d="M116.435 79.0568C116.435 79.0568 115.661 80.5504 116.566 81.463C117.472 82.3756 117.39 78.7038 116.435 79.0568Z" fill="#392A1A"/>
<path d="M115.475 89.2843C115.403 89.3187 115.376 91.0535 116.806 90.5757C118.237 90.0979 116.032 89.0303 115.475 89.2843Z" fill="#392A1A"/>
<path d="M112.121 86.3228C112.121 86.3228 109.605 87.033 110.261 89.5383C110.261 89.5383 112.04 88.3244 112.121 86.3228Z" fill="#392A1A"/>
<path d="M116.666 85.0573C116.666 85.0573 119.391 84.3212 119.069 87.132C119.069 87.132 116.44 85.6384 116.666 85.0573Z" fill="#392A1A"/>
<path d="M75.6257 125.658C79.7579 125.658 83.1077 122.472 83.1077 118.542C83.1077 114.612 79.7579 111.427 75.6257 111.427C71.4935 111.427 68.1437 114.612 68.1437 118.542C68.1437 122.472 71.4935 125.658 75.6257 125.658Z" fill="#CD2C3A"/>
<path d="M75.6574 118.775C76.2273 118.775 76.6894 118.335 76.6894 117.793C76.6894 117.251 76.2273 116.812 75.6574 116.812C75.0874 116.812 74.6254 117.251 74.6254 117.793C74.6254 118.335 75.0874 118.775 75.6574 118.775Z" fill="#392A1A"/>
<path d="M71.4841 116.937C71.4841 116.937 72.0454 118.34 69.5921 117.793C67.1388 117.246 71.4841 116.937 71.4841 116.937Z" fill="#392A1A"/>
<path d="M73.4032 114.074C73.4032 114.074 71.5203 113.898 72.7107 112.757C73.9011 111.616 73.4032 114.074 73.4032 114.074Z" fill="#392A1A"/>
<path d="M78.4863 113.062C78.4863 113.062 77.7123 114.556 78.6175 115.469C79.5228 116.381 79.4413 112.71 78.4863 113.062Z" fill="#392A1A"/>
<path d="M77.5313 123.294C77.4588 123.329 77.4317 125.063 78.862 124.586C80.2923 124.108 78.088 123.04 77.5313 123.294Z" fill="#392A1A"/>
<path d="M74.1728 120.329C74.1728 120.329 71.6561 121.039 72.3124 123.544C72.3124 123.544 74.0913 122.33 74.1728 120.329Z" fill="#392A1A"/>
<path d="M78.7172 119.063C78.7172 119.063 81.442 118.327 81.1207 121.138C81.1207 121.138 78.4909 119.644 78.7172 119.063Z" fill="#392A1A"/>
<path d="M35.4536 176.634C34.5896 176.634 33.7843 176.495 33.0376 176.218C32.3016 175.93 31.6616 175.525 31.1176 175.002C30.5736 174.479 30.147 173.866 29.8376 173.162C29.539 172.458 29.3896 171.685 29.3896 170.842C29.3896 169.999 29.539 169.226 29.8376 168.522C30.147 167.818 30.5736 167.205 31.1176 166.682C31.6723 166.159 32.3176 165.759 33.0536 165.482C33.7896 165.194 34.595 165.05 35.4696 165.05C36.4403 165.05 37.315 165.221 38.0936 165.562C38.883 165.893 39.5443 166.383 40.0776 167.034L38.4136 168.57C38.0296 168.133 37.603 167.807 37.1336 167.594C36.6643 167.37 36.1523 167.258 35.5976 167.258C35.075 167.258 34.595 167.343 34.1576 167.514C33.7203 167.685 33.3416 167.93 33.0216 168.25C32.7016 168.57 32.451 168.949 32.2696 169.386C32.099 169.823 32.0136 170.309 32.0136 170.842C32.0136 171.375 32.099 171.861 32.2696 172.298C32.451 172.735 32.7016 173.114 33.0216 173.434C33.3416 173.754 33.7203 173.999 34.1576 174.17C34.595 174.341 35.075 174.426 35.5976 174.426C36.1523 174.426 36.6643 174.319 37.1336 174.106C37.603 173.882 38.0296 173.546 38.4136 173.098L40.0776 174.634C39.5443 175.285 38.883 175.781 38.0936 176.122C37.315 176.463 36.435 176.634 35.4536 176.634ZM41.767 176.442V165.242H44.343V168.922H47.191C48.5457 168.922 49.591 169.226 50.327 169.834C51.063 170.431 51.431 171.333 51.431 172.538C51.431 173.818 51.0203 174.789 50.199 175.45C49.3883 176.111 48.263 176.442 46.823 176.442H41.767ZM44.343 174.522H46.679C47.3403 174.522 47.863 174.357 48.247 174.026C48.631 173.695 48.823 173.215 48.823 172.586C48.823 171.967 48.631 171.525 48.247 171.258C47.8737 170.981 47.351 170.842 46.679 170.842H44.343V174.522ZM52.855 176.442V165.242H55.431V176.442H52.855ZM58.2201 176.442V165.242H63.0681C64.0708 165.242 64.9348 165.407 65.6601 165.738C66.3855 166.058 66.9455 166.522 67.3401 167.13C67.7348 167.738 67.9321 168.463 67.9321 169.306C67.9321 170.138 67.7348 170.858 67.3401 171.466C66.9455 172.074 66.3855 172.543 65.6601 172.874C64.9348 173.194 64.0708 173.354 63.0681 173.354H59.6601L60.8121 172.186V176.442H58.2201ZM60.8121 172.474L59.6601 171.242H62.9241C63.7241 171.242 64.3215 171.071 64.7161 170.73C65.1108 170.389 65.3081 169.914 65.3081 169.306C65.3081 168.687 65.1108 168.207 64.7161 167.866C64.3215 167.525 63.7241 167.354 62.9241 167.354H59.6601L60.8121 166.122V172.474ZM77.322 176.442V165.242H79.914V176.442H77.322ZM69.642 176.442V165.242H72.234V176.442H69.642ZM72.042 171.85V169.658H77.514V171.85H72.042ZM82.7201 176.442V165.242H85.2961V168.922H88.1441C89.4988 168.922 90.5441 169.226 91.2801 169.834C92.0161 170.431 92.3841 171.333 92.3841 172.538C92.3841 173.818 91.9735 174.789 91.1521 175.45C90.3415 176.111 89.2161 176.442 87.7761 176.442H82.7201ZM85.2961 174.522H87.6321C88.2935 174.522 88.8161 174.357 89.2001 174.026C89.5841 173.695 89.7761 173.215 89.7761 172.586C89.7761 171.967 89.5841 171.525 89.2001 171.258C88.8268 170.981 88.3041 170.842 87.6321 170.842H85.2961V174.522ZM93.8081 176.442V165.242H96.3841V176.442H93.8081ZM99.1733 176.442V165.242H101.749V172.538L107.093 165.242H109.525V176.442H106.965V169.162L101.621 176.442H99.1733ZM104.341 164.522C103.275 164.522 102.491 164.309 101.989 163.882C101.499 163.455 101.248 162.853 101.237 162.074H103.013C103.024 162.458 103.136 162.751 103.349 162.954C103.573 163.146 103.904 163.242 104.341 163.242C104.768 163.242 105.093 163.146 105.317 162.954C105.541 162.751 105.659 162.458 105.669 162.074H107.445C107.435 162.853 107.179 163.455 106.677 163.882C106.176 164.309 105.397 164.522 104.341 164.522ZM116.845 176.442V165.242H121.693C122.696 165.242 123.56 165.407 124.285 165.738C125.01 166.058 125.57 166.522 125.965 167.13C126.36 167.738 126.557 168.463 126.557 169.306C126.557 170.138 126.36 170.858 125.965 171.466C125.57 172.074 125.01 172.543 124.285 172.874C123.56 173.194 122.696 173.354 121.693 173.354H118.285L119.437 172.186V176.442H116.845ZM119.437 172.474L118.285 171.242H121.549C122.349 171.242 122.946 171.071 123.341 170.73C123.736 170.389 123.933 169.914 123.933 169.306C123.933 168.687 123.736 168.207 123.341 167.866C122.946 167.525 122.349 167.354 121.549 167.354H118.285L119.437 166.122V172.474ZM126.441 176.442L131.433 165.242H133.993L139.001 176.442H136.281L132.185 166.554H133.209L129.097 176.442H126.441ZM128.937 174.042L129.625 172.074H135.385L136.089 174.042H128.937ZM140.486 176.442V165.242H143.062V172.538L148.406 165.242H150.838V176.442H148.278V169.162L142.934 176.442H140.486ZM145.654 164.522C144.587 164.522 143.803 164.309 143.302 163.882C142.811 163.455 142.56 162.853 142.55 162.074H144.326C144.336 162.458 144.448 162.751 144.662 162.954C144.886 163.146 145.216 163.242 145.654 163.242C146.08 163.242 146.406 163.146 146.63 162.954C146.854 162.751 146.971 162.458 146.982 162.074H148.758C148.747 162.853 148.491 163.455 147.99 163.882C147.488 164.309 146.71 164.522 145.654 164.522Z" fill="white"/>
<path d="M114.118 189.928V187.574C114.118 187.574 161.404 187.423 165.967 188.753C165.967 188.753 163.088 189.704 114.118 189.933V189.928Z" fill="#DF9433"/>
<path d="M64.061 189.928V187.574C64.061 187.574 16.7746 187.423 12.212 188.753C12.212 188.753 15.0908 189.704 64.061 189.933V189.928Z" fill="black"/>
<path d="M70.1127 186.136L78.8485 186.334L87.8966 186.541C87.8966 186.541 85.3392 218.85 72.5614 231.613C59.7836 244.376 60.4218 232.018 60.4218 232.018C60.4218 232.018 76.1825 213.513 78.7398 187.569C78.7398 187.569 69.8999 221.988 54.6689 219.561C54.6689 219.561 50.5137 217.533 57.439 210.444C64.3597 203.354 70.1127 186.136 70.1127 186.136Z" fill="black"/>
<path d="M88.0324 186.592L106.645 186.717C106.645 186.717 111.062 215.863 100.602 227.558C100.602 227.558 102.44 202.489 99.0857 186.993C99.0857 186.993 96.3925 232.53 87.6749 237.386C87.6749 237.386 80.9171 245.482 76.8479 240.218C76.8479 240.218 89.4446 216.009 88.037 186.588L88.0324 186.592Z" fill="#FCC12B"/>
<path d="M116.593 58.3865C116.593 58.3865 105.332 36.5109 119.391 22.7623C119.391 22.7623 90.4766 28.6121 116.593 58.3865Z" fill="black"/>
</g>
<defs>
<clipPath id="clip0_153_683">
<rect width="186" height="242" fill="white"/>
</clipPath>
</defs>
</svg>
